<?xml version="1.0" encoding="UTF-8"?><svg xmlns="http://www.w3.org/2000/svg" xmlns:xlink="http://www.w3.org/1999/xlink" fill-opacity="1" color-rendering="auto" color-interpolation="auto" text-rendering="auto" stroke="black" stroke-linecap="square" width="776" stroke-miterlimit="10" shape-rendering="auto" stroke-opacity="1" fill="black" stroke-dasharray="none" font-weight="normal" stroke-width="1" height="843" font-family="'Dialog'" font-style="normal" stroke-linejoin="miter" font-size="12px" stroke-dashoffset="0" image-rendering="auto">
  <!--Generated by ySVG 2.5-->
  <defs id="genericDefs"/>
  <g>
    <defs id="defs1">
      <clipPath clipPathUnits="userSpaceOnUse" id="clipPath1">
        <path d="M0 0 L776 0 L776 843 L0 843 L0 0 Z"/>
      </clipPath>
      <clipPath clipPathUnits="userSpaceOnUse" id="clipPath2">
        <path d="M341 8 L1117 8 L1117 851 L341 851 L341 8 Z"/>
      </clipPath>
    </defs>
    <g fill="white" text-rendering="geometricPrecision" shape-rendering="geometricPrecision" transform="translate(-341,-8)" stroke="white">
      <rect x="341" width="776" height="843" y="8" clip-path="url(#clipPath2)" stroke="none"/>
    </g>
    <g transform="matrix(1,0,0,1,-341,-8)" fill-opacity="0.5176" fill="rgb(202,236,255)" text-rendering="geometricPrecision" shape-rendering="geometricPrecision" stroke="rgb(202,236,255)" stroke-opacity="0.5176">
      <rect x="702.4855" y="639.5845" clip-path="url(#clipPath2)" width="210.6212" rx="4" ry="4" height="90.3848" stroke="none"/>
    </g>
    <g fill="rgb(153,204,255)" text-rendering="geometricPrecision" shape-rendering="geometricPrecision" transform="matrix(1,0,0,1,-341,-8)" stroke="rgb(153,204,255)">
      <rect x="702.4855" width="210.6212" height="22.3765" y="639.5845" clip-path="url(#clipPath2)" stroke="none"/>
    </g>
    <g font-size="15px" stroke-linecap="butt" transform="matrix(1,0,0,1,-341,-8)" text-rendering="geometricPrecision" font-family="sans-serif" shape-rendering="geometricPrecision" stroke-miterlimit="1.45">
      <text x="833.5726" xml:space="preserve" y="656.6651" clip-path="url(#clipPath2)" stroke="none">Main Model</text>
    </g>
    <g stroke-linecap="round" transform="matrix(1,0,0,1,-341,-8)" stroke-dashoffset="2" fill="rgb(102,102,153)" text-rendering="geometricPrecision" shape-rendering="geometricPrecision" stroke-dasharray="0,4" stroke="rgb(102,102,153)" stroke-miterlimit="1.45">
      <rect x="702.4855" y="639.5845" clip-path="url(#clipPath2)" fill="none" width="210.6212" rx="4" ry="4" height="90.3848"/>
    </g>
    <g fill="rgb(153,204,255)" text-rendering="geometricPrecision" shape-rendering="geometricPrecision" transform="matrix(1,0,0,1,-341,-8)" stroke="rgb(153,204,255)">
      <rect x="748.4857" y="676.961" clip-path="url(#clipPath2)" width="119.621" rx="4" ry="4" height="38.0083" stroke="none"/>
    </g>
    <g text-rendering="geometricPrecision" stroke-miterlimit="1.45" shape-rendering="geometricPrecision" font-family="sans-serif" transform="matrix(1,0,0,1,-341,-8)" stroke-linecap="butt">
      <text x="781.2787" xml:space="preserve" y="700.679" clip-path="url(#clipPath2)" stroke="none">qav-graph</text>
      <rect x="748.4857" y="676.961" clip-path="url(#clipPath2)" fill="none" width="119.621" rx="4" ry="4" height="38.0083"/>
    </g>
    <g transform="matrix(1,0,0,1,-341,-8)" fill-opacity="0.5176" fill="rgb(202,236,255)" text-rendering="geometricPrecision" shape-rendering="geometricPrecision" stroke="rgb(202,236,255)" stroke-opacity="0.5176">
      <rect x="366.433" y="23.5251" clip-path="url(#clipPath2)" width="498.6736" rx="4" ry="4" height="153.4568" stroke="none"/>
    </g>
    <g fill="rgb(153,204,255)" text-rendering="geometricPrecision" shape-rendering="geometricPrecision" transform="matrix(1,0,0,1,-341,-8)" stroke="rgb(153,204,255)">
      <rect x="366.433" width="498.6736" height="22.3765" y="23.5251" clip-path="url(#clipPath2)" stroke="none"/>
    </g>
    <g font-size="15px" stroke-linecap="butt" transform="matrix(1,0,0,1,-341,-8)" text-rendering="geometricPrecision" font-family="sans-serif" shape-rendering="geometricPrecision" stroke-miterlimit="1.45">
      <text x="806.4097" xml:space="preserve" y="40.6056" clip-path="url(#clipPath2)" stroke="none">Runners</text>
    </g>
    <g stroke-linecap="round" transform="matrix(1,0,0,1,-341,-8)" stroke-dashoffset="2" fill="rgb(102,102,153)" text-rendering="geometricPrecision" shape-rendering="geometricPrecision" stroke-dasharray="0,4" stroke="rgb(102,102,153)" stroke-miterlimit="1.45">
      <rect x="366.433" y="23.5251" clip-path="url(#clipPath2)" fill="none" width="498.6736" rx="4" ry="4" height="153.4568"/>
    </g>
    <g fill="rgb(153,204,255)" text-rendering="geometricPrecision" shape-rendering="geometricPrecision" transform="matrix(1,0,0,1,-341,-8)" stroke="rgb(153,204,255)">
      <rect x="516.054" y="123.9735" clip-path="url(#clipPath2)" width="119.621" rx="4" ry="4" height="38.0083" stroke="none"/>
    </g>
    <g text-rendering="geometricPrecision" stroke-miterlimit="1.45" shape-rendering="geometricPrecision" font-family="sans-serif" transform="matrix(1,0,0,1,-341,-8)" stroke-linecap="butt">
      <text x="554.1819" xml:space="preserve" y="147.6916" clip-path="url(#clipPath2)" stroke="none">qav-app</text>
      <rect x="516.054" y="123.9735" clip-path="url(#clipPath2)" fill="none" width="119.621" rx="4" ry="4" height="38.0083"/>
    </g>
    <g fill="rgb(153,204,255)" text-rendering="geometricPrecision" shape-rendering="geometricPrecision" transform="matrix(1,0,0,1,-341,-8)" stroke="rgb(153,204,255)">
      <rect x="381.433" y="60.9015" clip-path="url(#clipPath2)" width="119.621" rx="4" ry="4" height="38.0083" stroke="none"/>
    </g>
    <g text-rendering="geometricPrecision" stroke-miterlimit="1.45" shape-rendering="geometricPrecision" font-family="sans-serif" transform="matrix(1,0,0,1,-341,-8)" stroke-linecap="butt">
      <text x="394.8812" xml:space="preserve" y="84.6196" clip-path="url(#clipPath2)" stroke="none">qav-gradle-plugin</text>
      <rect x="381.433" y="60.9015" clip-path="url(#clipPath2)" fill="none" width="119.621" rx="4" ry="4" height="38.0083"/>
    </g>
    <g fill="rgb(153,204,255)" text-rendering="geometricPrecision" shape-rendering="geometricPrecision" transform="matrix(1,0,0,1,-341,-8)" stroke="rgb(153,204,255)">
      <rect x="516.054" y="60.9015" clip-path="url(#clipPath2)" width="119.621" rx="4" ry="4" height="38.0083" stroke="none"/>
    </g>
    <g text-rendering="geometricPrecision" stroke-miterlimit="1.45" shape-rendering="geometricPrecision" font-family="sans-serif" transform="matrix(1,0,0,1,-341,-8)" stroke-linecap="butt">
      <text x="528.1721" xml:space="preserve" y="84.6196" clip-path="url(#clipPath2)" stroke="none">qav-maven-plugin</text>
      <rect x="516.054" y="60.9015" clip-path="url(#clipPath2)" fill="none" width="119.621" rx="4" ry="4" height="38.0083"/>
    </g>
    <g fill="rgb(153,204,255)" text-rendering="geometricPrecision" shape-rendering="geometricPrecision" transform="matrix(1,0,0,1,-341,-8)" stroke="rgb(153,204,255)">
      <rect x="650.675" y="123.9735" clip-path="url(#clipPath2)" width="119.621" rx="4" ry="4" height="38.0083" stroke="none"/>
    </g>
    <g text-rendering="geometricPrecision" stroke-miterlimit="1.45" shape-rendering="geometricPrecision" font-family="sans-serif" transform="matrix(1,0,0,1,-341,-8)" stroke-linecap="butt">
      <text x="694.1437" xml:space="preserve" y="147.6916" clip-path="url(#clipPath2)" stroke="none">qav-ui</text>
      <rect x="650.675" y="123.9735" clip-path="url(#clipPath2)" fill="none" width="119.621" rx="4" ry="4" height="38.0083"/>
      <path fill="none" d="M516.0174 150.9798 L366.0202 150.9798 L356.433 160.567 L356.433 673.433 L378.9651 695.9651 L740.4406 695.9651" clip-path="url(#clipPath2)"/>
      <path d="M748.4406 695.9651 L736.4406 690.9651 L739.4406 695.9651 L736.4406 700.9651 Z" clip-path="url(#clipPath2)" stroke="none"/>
      <path fill="none" d="M445.2435 98.9099 L445.2435 124.2435 L455.9756 134.9756 L508.0247 134.9756" clip-path="url(#clipPath2)"/>
      <path d="M516.0247 134.9756 L504.0247 129.9756 L507.0247 134.9756 L504.0247 139.9756 Z" clip-path="url(#clipPath2)" stroke="none"/>
      <path fill="none" d="M575.8645 98.9099 L575.8645 115.9246" clip-path="url(#clipPath2)"/>
      <path d="M575.8645 123.9246 L580.8645 111.9246 L575.8645 114.9246 L570.8645 111.9246 Z" clip-path="url(#clipPath2)" stroke="none"/>
      <path fill="none" d="M635.675 142.9777 L642.6457 142.9777" clip-path="url(#clipPath2)"/>
      <path d="M650.6457 142.9777 L638.6457 137.9777 L641.6457 142.9777 L638.6457 147.9777 Z" clip-path="url(#clipPath2)" stroke="none"/>
    </g>
    <g transform="matrix(1,0,0,1,-341,-8)" fill-opacity="0.5176" fill="rgb(202,236,255)" text-rendering="geometricPrecision" shape-rendering="geometricPrecision" stroke="rgb(202,236,255)" stroke-opacity="0.5176">
      <rect x="381.433" y="744.9693" clip-path="url(#clipPath2)" width="151.6214" rx="4" ry="4" height="90.3848" stroke="none"/>
    </g>
    <g fill="rgb(153,204,255)" text-rendering="geometricPrecision" shape-rendering="geometricPrecision" transform="matrix(1,0,0,1,-341,-8)" stroke="rgb(153,204,255)">
      <rect x="381.433" width="151.6214" height="22.3765" y="744.9693" clip-path="url(#clipPath2)" stroke="none"/>
    </g>
    <g font-size="15px" stroke-linecap="butt" transform="matrix(1,0,0,1,-341,-8)" text-rendering="geometricPrecision" font-family="sans-serif" shape-rendering="geometricPrecision" stroke-miterlimit="1.45">
      <text x="428.4934" xml:space="preserve" y="762.0499" clip-path="url(#clipPath2)" stroke="none">Result Reading</text>
    </g>
    <g stroke-linecap="round" transform="matrix(1,0,0,1,-341,-8)" stroke-dashoffset="2" fill="rgb(102,102,153)" text-rendering="geometricPrecision" shape-rendering="geometricPrecision" stroke-dasharray="0,4" stroke="rgb(102,102,153)" stroke-miterlimit="1.45">
      <rect x="381.433" y="744.9693" clip-path="url(#clipPath2)" fill="none" width="151.6214" rx="4" ry="4" height="90.3848"/>
    </g>
    <g fill="rgb(153,204,255)" text-rendering="geometricPrecision" shape-rendering="geometricPrecision" transform="matrix(1,0,0,1,-341,-8)" stroke="rgb(153,204,255)">
      <rect x="397.4332" y="782.3458" clip-path="url(#clipPath2)" width="119.621" rx="4" ry="4" height="38.0083" stroke="none"/>
    </g>
    <g text-rendering="geometricPrecision" stroke-miterlimit="1.45" shape-rendering="geometricPrecision" font-family="sans-serif" transform="matrix(1,0,0,1,-341,-8)" stroke-linecap="butt">
      <text x="412.5513" xml:space="preserve" y="806.0638" clip-path="url(#clipPath2)" stroke="none">qav-sonar-plugin</text>
      <rect x="397.4332" y="782.3458" clip-path="url(#clipPath2)" fill="none" width="119.621" rx="4" ry="4" height="38.0083"/>
    </g>
    <g transform="matrix(1,0,0,1,-341,-8)" fill-opacity="0.5176" fill="rgb(202,236,255)" text-rendering="geometricPrecision" shape-rendering="geometricPrecision" stroke="rgb(202,236,255)" stroke-opacity="0.5176">
      <rect x="366.433" y="187.0455" clip-path="url(#clipPath2)" width="735.1055" rx="4" ry="4" height="438.2912" stroke="none"/>
    </g>
    <g fill="rgb(153,204,255)" text-rendering="geometricPrecision" shape-rendering="geometricPrecision" transform="matrix(1,0,0,1,-341,-8)" stroke="rgb(153,204,255)">
      <rect x="366.433" width="735.1055" height="22.3765" y="187.0455" clip-path="url(#clipPath2)" stroke="none"/>
    </g>
    <g font-size="15px" stroke-linecap="butt" transform="matrix(1,0,0,1,-341,-8)" text-rendering="geometricPrecision" font-family="sans-serif" shape-rendering="geometricPrecision" stroke-miterlimit="1.45">
      <text x="1025.3368" xml:space="preserve" y="204.1261" clip-path="url(#clipPath2)" stroke="none">Processing</text>
    </g>
    <g stroke-linecap="round" transform="matrix(1,0,0,1,-341,-8)" stroke-dashoffset="2" fill="rgb(102,102,153)" text-rendering="geometricPrecision" shape-rendering="geometricPrecision" stroke-dasharray="0,4" stroke="rgb(102,102,153)" stroke-miterlimit="1.45">
      <rect x="366.433" y="187.0455" clip-path="url(#clipPath2)" fill="none" width="735.1055" rx="4" ry="4" height="438.2912"/>
    </g>
    <g text-rendering="geometricPrecision" stroke-miterlimit="1.45" shape-rendering="geometricPrecision" transform="matrix(1,0,0,1,-341,-8)" stroke-linecap="butt">
      <path fill="none" d="M808.2963 625.3367 L808.2963 668.9358" clip-path="url(#clipPath2)"/>
      <path d="M808.2963 676.9358 L813.2963 664.9358 L808.2963 667.9358 L803.2963 664.9358 Z" clip-path="url(#clipPath2)" stroke="none"/>
    </g>
    <g transform="matrix(1,0,0,1,-341,-8)" fill-opacity="0.5176" fill="rgb(182,216,235)" text-rendering="geometricPrecision" shape-rendering="geometricPrecision" stroke="rgb(182,216,235)" stroke-opacity="0.5176">
      <rect x="381.433" y="445.2836" clip-path="url(#clipPath2)" width="301.2425" rx="4" ry="4" height="158.3932" stroke="none"/>
    </g>
    <g fill="rgb(153,204,255)" text-rendering="geometricPrecision" shape-rendering="geometricPrecision" transform="matrix(1,0,0,1,-341,-8)" stroke="rgb(153,204,255)">
      <rect x="381.433" width="301.2425" height="22.3765" y="445.2836" clip-path="url(#clipPath2)" stroke="none"/>
    </g>
    <g font-size="15px" stroke-linecap="butt" transform="matrix(1,0,0,1,-341,-8)" text-rendering="geometricPrecision" font-family="sans-serif" shape-rendering="geometricPrecision" stroke-miterlimit="1.45">
      <text x="647.3136" xml:space="preserve" y="462.3641" clip-path="url(#clipPath2)" stroke="none">Input</text>
    </g>
    <g stroke-linecap="round" transform="matrix(1,0,0,1,-341,-8)" stroke-dashoffset="2" fill="rgb(102,102,153)" text-rendering="geometricPrecision" shape-rendering="geometricPrecision" stroke-dasharray="0,4" stroke="rgb(102,102,153)" stroke-miterlimit="1.45">
      <rect x="381.433" y="445.2836" clip-path="url(#clipPath2)" fill="none" width="301.2425" rx="4" ry="4" height="158.3932"/>
    </g>
    <g fill="rgb(153,204,255)" text-rendering="geometricPrecision" shape-rendering="geometricPrecision" transform="matrix(1,0,0,1,-341,-8)" stroke="rgb(153,204,255)">
      <rect x="397.4332" y="482.66" clip-path="url(#clipPath2)" width="119.621" rx="4" ry="4" height="38.0083" stroke="none"/>
    </g>
    <g text-rendering="geometricPrecision" stroke-miterlimit="1.45" shape-rendering="geometricPrecision" font-family="sans-serif" transform="matrix(1,0,0,1,-341,-8)" stroke-linecap="butt">
      <text x="419.5562" xml:space="preserve" y="506.3781" clip-path="url(#clipPath2)" stroke="none">qav-input-java</text>
      <rect x="397.4332" y="482.66" clip-path="url(#clipPath2)" fill="none" width="119.621" rx="4" ry="4" height="38.0083"/>
    </g>
    <g fill="rgb(153,204,255)" text-rendering="geometricPrecision" shape-rendering="geometricPrecision" transform="matrix(1,0,0,1,-341,-8)" stroke="rgb(153,204,255)">
      <rect x="547.0542" y="482.66" clip-path="url(#clipPath2)" width="119.621" rx="4" ry="4" height="38.0083" stroke="none"/>
    </g>
    <g text-rendering="geometricPrecision" stroke-miterlimit="1.45" shape-rendering="geometricPrecision" font-family="sans-serif" transform="matrix(1,0,0,1,-341,-8)" stroke-linecap="butt">
      <text x="582.1821" xml:space="preserve" y="506.3781" clip-path="url(#clipPath2)" stroke="none">qav-input</text>
      <rect x="547.0542" y="482.66" clip-path="url(#clipPath2)" fill="none" width="119.621" rx="4" ry="4" height="38.0083"/>
    </g>
    <g transform="matrix(1,0,0,1,-341,-8)" fill-opacity="0.5176" fill="rgb(182,216,235)" text-rendering="geometricPrecision" shape-rendering="geometricPrecision" stroke="rgb(182,216,235)" stroke-opacity="0.5176">
      <rect x="933.9171" y="445.2836" clip-path="url(#clipPath2)" width="152.6214" rx="4" ry="4" height="158.3932" stroke="none"/>
    </g>
    <g fill="rgb(153,204,255)" text-rendering="geometricPrecision" shape-rendering="geometricPrecision" transform="matrix(1,0,0,1,-341,-8)" stroke="rgb(153,204,255)">
      <rect x="933.9171" width="152.6214" height="22.3765" y="445.2836" clip-path="url(#clipPath2)" stroke="none"/>
    </g>
    <g font-size="15px" stroke-linecap="butt" transform="matrix(1,0,0,1,-341,-8)" text-rendering="geometricPrecision" font-family="sans-serif" shape-rendering="geometricPrecision" stroke-miterlimit="1.45">
      <text x="1039.5092" xml:space="preserve" y="462.3641" clip-path="url(#clipPath2)" stroke="none">Output</text>
    </g>
    <g stroke-linecap="round" transform="matrix(1,0,0,1,-341,-8)" stroke-dashoffset="2" fill="rgb(102,102,153)" text-rendering="geometricPrecision" shape-rendering="geometricPrecision" stroke-dasharray="0,4" stroke="rgb(102,102,153)" stroke-miterlimit="1.45">
      <rect x="933.9171" y="445.2836" clip-path="url(#clipPath2)" fill="none" width="152.6214" rx="4" ry="4" height="158.3932"/>
    </g>
    <g fill="rgb(153,204,255)" text-rendering="geometricPrecision" shape-rendering="geometricPrecision" transform="matrix(1,0,0,1,-341,-8)" stroke="rgb(153,204,255)">
      <rect x="949.9173" y="482.66" clip-path="url(#clipPath2)" width="119.621" rx="4" ry="4" height="38.0083" stroke="none"/>
    </g>
    <g text-rendering="geometricPrecision" stroke-miterlimit="1.45" shape-rendering="geometricPrecision" font-family="sans-serif" transform="matrix(1,0,0,1,-341,-8)" stroke-linecap="butt">
      <text x="965.3723" xml:space="preserve" y="506.3781" clip-path="url(#clipPath2)" stroke="none">qav-visualization</text>
      <rect x="949.9173" y="482.66" clip-path="url(#clipPath2)" fill="none" width="119.621" rx="4" ry="4" height="38.0083"/>
    </g>
    <g fill="rgb(153,204,255)" text-rendering="geometricPrecision" shape-rendering="geometricPrecision" transform="matrix(1,0,0,1,-341,-8)" stroke="rgb(153,204,255)">
      <rect x="949.9173" y="545.6684" clip-path="url(#clipPath2)" width="119.621" rx="4" ry="4" height="38.0083" stroke="none"/>
    </g>
    <g text-rendering="geometricPrecision" stroke-miterlimit="1.45" shape-rendering="geometricPrecision" font-family="sans-serif" transform="matrix(1,0,0,1,-341,-8)" stroke-linecap="butt">
      <text x="974.0383" xml:space="preserve" y="569.3864" clip-path="url(#clipPath2)" stroke="none">qav-graph-db</text>
      <rect x="949.9173" y="545.6684" clip-path="url(#clipPath2)" fill="none" width="119.621" rx="4" ry="4" height="38.0083"/>
    </g>
    <g transform="matrix(1,0,0,1,-341,-8)" fill-opacity="0.5176" fill="rgb(182,216,235)" text-rendering="geometricPrecision" shape-rendering="geometricPrecision" stroke="rgb(182,216,235)" stroke-opacity="0.5176">
      <rect x="702.4855" y="445.2836" clip-path="url(#clipPath2)" width="210.6212" rx="4" ry="4" height="158.3932" stroke="none"/>
    </g>
    <g fill="rgb(153,204,255)" text-rendering="geometricPrecision" shape-rendering="geometricPrecision" transform="matrix(1,0,0,1,-341,-8)" stroke="rgb(153,204,255)">
      <rect x="702.4855" width="210.6212" height="22.3765" y="445.2836" clip-path="url(#clipPath2)" stroke="none"/>
    </g>
    <g font-size="15px" stroke-linecap="butt" transform="matrix(1,0,0,1,-341,-8)" text-rendering="geometricPrecision" font-family="sans-serif" shape-rendering="geometricPrecision" stroke-miterlimit="1.45">
      <text x="791.8758" xml:space="preserve" y="462.3641" clip-path="url(#clipPath2)" stroke="none">Trafo &amp; Validation</text>
    </g>
    <g stroke-linecap="round" transform="matrix(1,0,0,1,-341,-8)" stroke-dashoffset="2" fill="rgb(102,102,153)" text-rendering="geometricPrecision" shape-rendering="geometricPrecision" stroke-dasharray="0,4" stroke="rgb(102,102,153)" stroke-miterlimit="1.45">
      <rect x="702.4855" y="445.2836" clip-path="url(#clipPath2)" fill="none" width="210.6212" rx="4" ry="4" height="158.3932"/>
    </g>
    <g fill="rgb(153,204,255)" text-rendering="geometricPrecision" shape-rendering="geometricPrecision" transform="matrix(1,0,0,1,-341,-8)" stroke="rgb(153,204,255)">
      <rect x="748.4857" y="482.66" clip-path="url(#clipPath2)" width="119.621" rx="4" ry="4" height="38.0083" stroke="none"/>
    </g>
    <g text-rendering="geometricPrecision" stroke-miterlimit="1.45" shape-rendering="geometricPrecision" font-family="sans-serif" transform="matrix(1,0,0,1,-341,-8)" stroke-linecap="butt">
      <text x="765.2767" xml:space="preserve" y="506.3781" clip-path="url(#clipPath2)" stroke="none">qav-architecture</text>
      <rect x="748.4857" y="482.66" clip-path="url(#clipPath2)" fill="none" width="119.621" rx="4" ry="4" height="38.0083"/>
    </g>
    <g fill="rgb(153,204,255)" text-rendering="geometricPrecision" shape-rendering="geometricPrecision" transform="matrix(1,0,0,1,-341,-8)" stroke="rgb(153,204,255)">
      <rect x="748.4857" y="545.6684" clip-path="url(#clipPath2)" width="119.621" rx="4" ry="4" height="38.0083" stroke="none"/>
    </g>
    <g text-rendering="geometricPrecision" stroke-miterlimit="1.45" shape-rendering="geometricPrecision" font-family="sans-serif" transform="matrix(1,0,0,1,-341,-8)" stroke-linecap="butt">
      <text x="755.6088" xml:space="preserve" y="569.3864" clip-path="url(#clipPath2)" stroke="none">qav-architecture-dsl</text>
      <rect x="748.4857" y="545.6684" clip-path="url(#clipPath2)" fill="none" width="119.621" rx="4" ry="4" height="38.0083"/>
      <path fill="none" d="M808.2963 520.6683 L808.2963 537.6195" clip-path="url(#clipPath2)"/>
      <path d="M808.2963 545.6195 L813.2963 533.6195 L808.2963 536.6195 L803.2963 533.6195 Z" clip-path="url(#clipPath2)" stroke="none"/>
      <path fill="none" d="M682.6754 571.7855 L740.4536 571.7855" clip-path="url(#clipPath2)"/>
      <path d="M748.4536 571.7855 L736.4536 566.7855 L739.4536 571.7855 L736.4536 576.7855 Z" clip-path="url(#clipPath2)" stroke="none"/>
      <path fill="none" d="M933.8849 564.6725 L876.1068 564.6725" clip-path="url(#clipPath2)"/>
      <path d="M868.1068 564.6725 L880.1068 569.6725 L877.1068 564.6725 L880.1068 559.6725 Z" clip-path="url(#clipPath2)" stroke="none"/>
    </g>
    <g transform="matrix(1,0,0,1,-341,-8)" fill-opacity="0.5176" fill="rgb(182,216,235)" text-rendering="geometricPrecision" shape-rendering="geometricPrecision" stroke="rgb(182,216,235)" stroke-opacity="0.5176">
      <rect x="381.433" y="224.422" clip-path="url(#clipPath2)" width="704.1055" rx="4" ry="4" height="170.9537" stroke="none"/>
    </g>
    <g fill="rgb(153,204,255)" text-rendering="geometricPrecision" shape-rendering="geometricPrecision" transform="matrix(1,0,0,1,-341,-8)" stroke="rgb(153,204,255)">
      <rect x="381.433" width="704.1055" height="22.3765" y="224.422" clip-path="url(#clipPath2)" stroke="none"/>
    </g>
    <g font-size="15px" stroke-linecap="butt" transform="matrix(1,0,0,1,-341,-8)" text-rendering="geometricPrecision" font-family="sans-serif" shape-rendering="geometricPrecision" stroke-miterlimit="1.45">
      <text x="881.7929" xml:space="preserve" y="241.5026" clip-path="url(#clipPath2)" stroke="none">Analysis: DSL &amp; Orchestration</text>
    </g>
    <g stroke-linecap="round" transform="matrix(1,0,0,1,-341,-8)" stroke-dashoffset="2" fill="rgb(102,102,153)" text-rendering="geometricPrecision" shape-rendering="geometricPrecision" stroke-dasharray="0,4" stroke="rgb(102,102,153)" stroke-miterlimit="1.45">
      <rect x="381.433" y="224.422" clip-path="url(#clipPath2)" fill="none" width="704.1055" rx="4" ry="4" height="170.9537"/>
    </g>
    <g fill="rgb(153,204,255)" text-rendering="geometricPrecision" shape-rendering="geometricPrecision" transform="matrix(1,0,0,1,-341,-8)" stroke="rgb(153,204,255)">
      <rect x="600.6747" y="342.3674" clip-path="url(#clipPath2)" width="119.621" rx="4" ry="4" height="38.0083" stroke="none"/>
    </g>
    <g text-rendering="geometricPrecision" stroke-miterlimit="1.45" shape-rendering="geometricPrecision" font-family="sans-serif" transform="matrix(1,0,0,1,-341,-8)" stroke-linecap="butt">
      <text x="617.4686" xml:space="preserve" y="366.0854" clip-path="url(#clipPath2)" stroke="none">qav-analysis-dsl</text>
      <rect x="600.6747" y="342.3674" clip-path="url(#clipPath2)" fill="none" width="119.621" rx="4" ry="4" height="38.0083"/>
    </g>
    <g fill="rgb(153,204,255)" text-rendering="geometricPrecision" shape-rendering="geometricPrecision" transform="matrix(1,0,0,1,-341,-8)" stroke="rgb(153,204,255)">
      <rect x="401.0532" y="342.3674" clip-path="url(#clipPath2)" width="119.621" rx="4" ry="4" height="38.0083" stroke="none"/>
    </g>
    <g text-rendering="geometricPrecision" stroke-miterlimit="1.45" shape-rendering="geometricPrecision" font-family="sans-serif" transform="matrix(1,0,0,1,-341,-8)" stroke-linecap="butt">
      <text x="406.5033" xml:space="preserve" y="366.0854" clip-path="url(#clipPath2)" stroke="none">qav-analysis-plugins</text>
      <rect x="401.0532" y="342.3674" clip-path="url(#clipPath2)" fill="none" width="119.621" rx="4" ry="4" height="38.0083"/>
    </g>
    <g fill="rgb(153,204,255)" text-rendering="geometricPrecision" shape-rendering="geometricPrecision" transform="matrix(1,0,0,1,-341,-8)" stroke="rgb(153,204,255)">
      <rect x="516.054" y="284.3591" clip-path="url(#clipPath2)" width="119.621" rx="4" ry="4" height="38.0083" stroke="none"/>
    </g>
    <g text-rendering="geometricPrecision" stroke-miterlimit="1.45" shape-rendering="geometricPrecision" font-family="sans-serif" transform="matrix(1,0,0,1,-341,-8)" stroke-linecap="butt">
      <text x="546.8489" xml:space="preserve" y="308.0771" clip-path="url(#clipPath2)" stroke="none">qav-runner</text>
      <rect x="516.054" y="284.3591" clip-path="url(#clipPath2)" fill="none" width="119.621" rx="4" ry="4" height="38.0083"/>
      <path fill="none" d="M503.4716 380.3758 L503.4716 390.3758 L793.3757 390.3758 L808.2963 405.2962 L808.2963 474.6223" clip-path="url(#clipPath2)"/>
      <path d="M808.2963 482.6223 L813.2963 470.6223 L808.2963 473.6223 L803.2963 470.6223 Z" clip-path="url(#clipPath2)" stroke="none"/>
      <path fill="none" d="M475.0663 380.3758 L475.0663 391.0663 L479.3758 395.3758 L730.3757 395.3758 L734.3907 399.3907 L734.3907 550.3907 L738.0031 554.0031 L740.4448 554.0031" clip-path="url(#clipPath2)"/>
      <path d="M748.4448 554.0031 L736.4448 549.0031 L739.4448 554.0031 L736.4448 559.0031 Z" clip-path="url(#clipPath2)" stroke="none"/>
      <path fill="none" d="M520.6742 349.3684 L592.6356 349.3684" clip-path="url(#clipPath2)"/>
      <path d="M600.6356 349.3684 L588.6356 344.3684 L591.6356 349.3684 L588.6356 354.3684 Z" clip-path="url(#clipPath2)" stroke="none"/>
      <path fill="none" d="M445.2435 342.3402 L445.2435 286.7565 L467.6409 264.3591 L987.3591 264.3591 L1010.2278 287.2278 L1010.2278 437.245" clip-path="url(#clipPath2)"/>
      <path d="M1010.2278 445.245 L1015.2278 433.245 L1010.2278 436.245 L1005.2278 433.245 Z" clip-path="url(#clipPath2)" stroke="none"/>
      <path fill="none" d="M418.2558 380.3758 L418.2558 437.2519" clip-path="url(#clipPath2)"/>
      <path d="M418.2558 445.2519 L423.2558 433.2519 L418.2558 436.2519 L413.2558 433.2519 Z" clip-path="url(#clipPath2)" stroke="none"/>
      <path fill="none" d="M575.8645 161.9819 L575.8645 276.3292" clip-path="url(#clipPath2)"/>
      <path d="M575.8645 284.3292 L580.8645 272.3292 L575.8645 275.3292 L570.8645 272.3292 Z" clip-path="url(#clipPath2)" stroke="none"/>
      <path fill="none" d="M404.7031 98.9099 L404.7031 272.7031 L427.3611 295.3611 L508.0107 295.3611" clip-path="url(#clipPath2)"/>
      <path d="M516.0107 295.3611 L504.0107 290.3611 L507.0107 295.3611 L504.0107 300.3611 Z" clip-path="url(#clipPath2)" stroke="none"/>
      <path fill="none" d="M635.675 79.9057 L757.9057 79.9057 L780.296 102.296 L780.296 280.704 L757.6368 303.3632 L643.675 303.3632" clip-path="url(#clipPath2)"/>
      <path d="M635.675 303.3632 L647.675 308.3632 L644.675 303.3632 L647.675 298.3632 Z" clip-path="url(#clipPath2)" stroke="none"/>
      <path fill="none" d="M618.1749 322.3674 L618.1749 334.3283" clip-path="url(#clipPath2)"/>
      <path d="M618.1749 342.3283 L623.1749 330.3283 L618.1749 333.3283 L613.1749 330.3283 Z" clip-path="url(#clipPath2)" stroke="none"/>
      <path fill="none" stroke-dasharray="6,2" d="M516.0121 311.3653 L494.6347 311.3653 L485.7838 320.2162 L485.7838 334.3241" clip-path="url(#clipPath2)"/>
      <path stroke-dasharray="6,2" d="M485.7838 342.3241 L490.7838 330.3241 L485.7838 333.3241 L480.7838 330.3241 Z" clip-path="url(#clipPath2)" stroke="none"/>
    </g>
    <g transform="matrix(1,0,0,1,-341,-8)" fill-opacity="0.5176" fill="rgb(202,236,255)" text-rendering="geometricPrecision" shape-rendering="geometricPrecision" stroke="rgb(202,236,255)" stroke-opacity="0.5176">
      <rect x="613.8647" y="744.9693" clip-path="url(#clipPath2)" width="299.242" rx="4" ry="4" height="90.3848" stroke="none"/>
    </g>
    <g fill="rgb(153,204,255)" text-rendering="geometricPrecision" shape-rendering="geometricPrecision" transform="matrix(1,0,0,1,-341,-8)" stroke="rgb(153,204,255)">
      <rect x="613.8647" width="299.242" height="22.3765" y="744.9693" clip-path="url(#clipPath2)" stroke="none"/>
    </g>
    <g font-size="15px" stroke-linecap="butt" transform="matrix(1,0,0,1,-341,-8)" text-rendering="geometricPrecision" font-family="sans-serif" shape-rendering="geometricPrecision" stroke-miterlimit="1.45">
      <text x="862.7669" xml:space="preserve" y="762.0499" clip-path="url(#clipPath2)" stroke="none">Utilities</text>
    </g>
    <g stroke-linecap="round" transform="matrix(1,0,0,1,-341,-8)" stroke-dashoffset="2" fill="rgb(102,102,153)" text-rendering="geometricPrecision" shape-rendering="geometricPrecision" stroke-dasharray="0,4" stroke="rgb(102,102,153)" stroke-miterlimit="1.45">
      <rect x="613.8647" y="744.9693" clip-path="url(#clipPath2)" fill="none" width="299.242" rx="4" ry="4" height="90.3848"/>
    </g>
    <g fill="rgb(153,204,255)" text-rendering="geometricPrecision" shape-rendering="geometricPrecision" transform="matrix(1,0,0,1,-341,-8)" stroke="rgb(153,204,255)">
      <rect x="628.8647" y="782.3458" clip-path="url(#clipPath2)" width="119.621" rx="4" ry="4" height="38.0083" stroke="none"/>
    </g>
    <g text-rendering="geometricPrecision" stroke-miterlimit="1.45" shape-rendering="geometricPrecision" font-family="sans-serif" transform="matrix(1,0,0,1,-341,-8)" stroke-linecap="butt">
      <text x="639.6469" xml:space="preserve" y="806.0638" clip-path="url(#clipPath2)" stroke="none">qav-doc-generator</text>
      <rect x="628.8647" y="782.3458" clip-path="url(#clipPath2)" fill="none" width="119.621" rx="4" ry="4" height="38.0083"/>
    </g>
    <g fill="rgb(153,204,255)" text-rendering="geometricPrecision" shape-rendering="geometricPrecision" transform="matrix(1,0,0,1,-341,-8)" stroke="rgb(153,204,255)">
      <rect x="778.4857" y="782.3458" clip-path="url(#clipPath2)" width="119.621" rx="4" ry="4" height="38.0083" stroke="none"/>
    </g>
    <g text-rendering="geometricPrecision" stroke-miterlimit="1.45" shape-rendering="geometricPrecision" font-family="sans-serif" transform="matrix(1,0,0,1,-341,-8)" stroke-linecap="butt">
      <text x="818.9545" xml:space="preserve" y="806.0638" clip-path="url(#clipPath2)" stroke="none">qav-util</text>
      <rect x="778.4857" y="782.3458" clip-path="url(#clipPath2)" fill="none" width="119.621" rx="4" ry="4" height="38.0083"/>
      <path fill="none" d="M446.661 380.3758 L446.661 408.661 L458.3297 420.3297 L668.3297 420.3297 L687.5805 439.5805 L687.5805 774.304" clip-path="url(#clipPath2)"/>
      <path d="M687.5805 782.304 L692.5805 770.304 L687.5805 773.304 L682.5805 770.304 Z" clip-path="url(#clipPath2)" stroke="none"/>
      <path fill="none" d="M823.2963 714.9693 L823.2963 774.3129" clip-path="url(#clipPath2)"/>
      <path d="M823.2963 782.3129 L828.2963 770.3129 L823.2963 773.3129 L818.2963 770.3129 Z" clip-path="url(#clipPath2)" stroke="none"/>
      <path fill="none" d="M748.4857 801.35 L770.4564 801.35" clip-path="url(#clipPath2)"/>
      <path d="M778.4564 801.35 L766.4564 796.35 L769.4564 801.35 L766.4564 806.35 Z" clip-path="url(#clipPath2)" stroke="none"/>
      <path fill="none" d="M923.5119 625.3182 L923.5119 782.4881 L916.8383 789.1617 L906.1068 789.1617" clip-path="url(#clipPath2)"/>
      <path d="M898.1068 789.1617 L910.1068 794.1617 L907.1068 789.1617 L910.1068 784.1617 Z" clip-path="url(#clipPath2)" stroke="none"/>
    </g>
    <g transform="matrix(1,0,0,1,-341,-8)" fill-opacity="0.5176" fill="rgb(202,236,255)" text-rendering="geometricPrecision" shape-rendering="geometricPrecision" stroke="rgb(202,236,255)" stroke-opacity="0.5176">
      <rect x="951.9175" y="744.9693" clip-path="url(#clipPath2)" width="149.621" rx="4" ry="4" height="90.3848" stroke="none"/>
    </g>
    <g fill="rgb(153,204,255)" text-rendering="geometricPrecision" shape-rendering="geometricPrecision" transform="matrix(1,0,0,1,-341,-8)" stroke="rgb(153,204,255)">
      <rect x="951.9175" width="149.621" height="22.3765" y="744.9693" clip-path="url(#clipPath2)" stroke="none"/>
    </g>
    <g font-size="15px" stroke-linecap="butt" transform="matrix(1,0,0,1,-341,-8)" text-rendering="geometricPrecision" font-family="sans-serif" shape-rendering="geometricPrecision" stroke-miterlimit="1.45">
      <text x="998.6474" xml:space="preserve" y="762.0499" clip-path="url(#clipPath2)" stroke="none">Documentation</text>
    </g>
    <g stroke-linecap="round" transform="matrix(1,0,0,1,-341,-8)" stroke-dashoffset="2" fill="rgb(102,102,153)" text-rendering="geometricPrecision" shape-rendering="geometricPrecision" stroke-dasharray="0,4" stroke="rgb(102,102,153)" stroke-miterlimit="1.45">
      <rect x="951.9175" y="744.9693" clip-path="url(#clipPath2)" fill="none" width="149.621" rx="4" ry="4" height="90.3848"/>
    </g>
    <g fill="rgb(153,204,255)" text-rendering="geometricPrecision" shape-rendering="geometricPrecision" transform="matrix(1,0,0,1,-341,-8)" stroke="rgb(153,204,255)">
      <rect x="966.9175" y="782.3458" clip-path="url(#clipPath2)" width="119.621" rx="4" ry="4" height="38.0083" stroke="none"/>
    </g>
    <g text-rendering="geometricPrecision" stroke-miterlimit="1.45" shape-rendering="geometricPrecision" font-family="sans-serif" transform="matrix(1,0,0,1,-341,-8)" stroke-linecap="butt">
      <text x="1005.3823" xml:space="preserve" y="806.0638" clip-path="url(#clipPath2)" stroke="none">qav-doc</text>
      <rect x="966.9175" y="782.3458" clip-path="url(#clipPath2)" fill="none" width="119.621" rx="4" ry="4" height="38.0083"/>
    </g>
  </g>
</svg>
