<?xml version="1.0" encoding="UTF-8"?><svg xmlns="http://www.w3.org/2000/svg" xmlns:xlink="http://www.w3.org/1999/xlink" fill-opacity="1" color-rendering="auto" color-interpolation="auto" text-rendering="auto" stroke="black" stroke-linecap="square" width="786" stroke-miterlimit="10" shape-rendering="auto" stroke-opacity="1" fill="black" stroke-dasharray="none" font-weight="normal" stroke-width="1" height="828" font-family="'Dialog'" font-style="normal" stroke-linejoin="miter" font-size="12px" stroke-dashoffset="0" image-rendering="auto">
  <!--Generated by ySVG 2.5-->
  <defs id="genericDefs"/>
  <g>
    <defs id="defs1">
      <clipPath clipPathUnits="userSpaceOnUse" id="clipPath1">
        <path d="M0 0 L786 0 L786 828 L0 828 L0 0 Z"/>
      </clipPath>
      <clipPath clipPathUnits="userSpaceOnUse" id="clipPath2">
        <path d="M341 81 L1127 81 L1127 909 L341 909 L341 81 Z"/>
      </clipPath>
    </defs>
    <g fill="white" text-rendering="geometricPrecision" shape-rendering="geometricPrecision" transform="translate(-341,-81)" stroke="white">
      <rect x="341" width="786" height="828" y="81" clip-path="url(#clipPath2)" stroke="none"/>
    </g>
    <g transform="matrix(1,0,0,1,-341,-81)" fill-opacity="0.5176" fill="rgb(202,236,255)" text-rendering="geometricPrecision" shape-rendering="geometricPrecision" stroke="rgb(202,236,255)" stroke-opacity="0.5176">
      <rect x="702.4855" y="639.5845" clip-path="url(#clipPath2)" width="210.6212" rx="4" ry="4" height="90.3848" stroke="none"/>
    </g>
    <g fill="rgb(153,204,255)" text-rendering="geometricPrecision" shape-rendering="geometricPrecision" transform="matrix(1,0,0,1,-341,-81)" stroke="rgb(153,204,255)">
      <rect x="702.4855" width="210.6212" height="22.3765" y="639.5845" clip-path="url(#clipPath2)" stroke="none"/>
    </g>
    <g font-size="15px" stroke-linecap="butt" transform="matrix(1,0,0,1,-341,-81)" text-rendering="geometricPrecision" font-family="sans-serif" shape-rendering="geometricPrecision" stroke-miterlimit="1.45">
      <text x="833.5726" xml:space="preserve" y="656.6651" clip-path="url(#clipPath2)" stroke="none">Main Model</text>
    </g>
    <g stroke-linecap="round" transform="matrix(1,0,0,1,-341,-81)" stroke-dashoffset="2" fill="rgb(102,102,153)" text-rendering="geometricPrecision" shape-rendering="geometricPrecision" stroke-dasharray="0,4" stroke="rgb(102,102,153)" stroke-miterlimit="1.45">
      <rect x="702.4855" y="639.5845" clip-path="url(#clipPath2)" fill="none" width="210.6212" rx="4" ry="4" height="90.3848"/>
    </g>
    <g fill="rgb(153,204,255)" text-rendering="geometricPrecision" shape-rendering="geometricPrecision" transform="matrix(1,0,0,1,-341,-81)" stroke="rgb(153,204,255)">
      <rect x="748.4857" y="676.961" clip-path="url(#clipPath2)" width="119.621" rx="4" ry="4" height="38.0083" stroke="none"/>
    </g>
    <g text-rendering="geometricPrecision" stroke-miterlimit="1.45" shape-rendering="geometricPrecision" font-family="sans-serif" transform="matrix(1,0,0,1,-341,-81)" stroke-linecap="butt">
      <text x="781.2787" xml:space="preserve" y="700.679" clip-path="url(#clipPath2)" stroke="none">qav-graph</text>
      <rect x="748.4857" y="676.961" clip-path="url(#clipPath2)" fill="none" width="119.621" rx="4" ry="4" height="38.0083"/>
    </g>
    <g transform="matrix(1,0,0,1,-341,-81)" fill-opacity="0.5176" fill="rgb(202,236,255)" text-rendering="geometricPrecision" shape-rendering="geometricPrecision" stroke="rgb(202,236,255)" stroke-opacity="0.5176">
      <rect x="366.433" y="96.7676" clip-path="url(#clipPath2)" width="419.8633" rx="4" ry="4" height="170.9537" stroke="none"/>
    </g>
    <g fill="rgb(153,204,255)" text-rendering="geometricPrecision" shape-rendering="geometricPrecision" transform="matrix(1,0,0,1,-341,-81)" stroke="rgb(153,204,255)">
      <rect x="366.433" width="419.8633" height="22.3765" y="96.7676" clip-path="url(#clipPath2)" stroke="none"/>
    </g>
    <g font-size="15px" stroke-linecap="butt" transform="matrix(1,0,0,1,-341,-81)" text-rendering="geometricPrecision" font-family="sans-serif" shape-rendering="geometricPrecision" stroke-miterlimit="1.45">
      <text x="727.5995" xml:space="preserve" y="113.8481" clip-path="url(#clipPath2)" stroke="none">Runners</text>
    </g>
    <g stroke-linecap="round" transform="matrix(1,0,0,1,-341,-81)" stroke-dashoffset="2" fill="rgb(102,102,153)" text-rendering="geometricPrecision" shape-rendering="geometricPrecision" stroke-dasharray="0,4" stroke="rgb(102,102,153)" stroke-miterlimit="1.45">
      <rect x="366.433" y="96.7676" clip-path="url(#clipPath2)" fill="none" width="419.8633" rx="4" ry="4" height="170.9537"/>
    </g>
    <g fill="rgb(153,204,255)" text-rendering="geometricPrecision" shape-rendering="geometricPrecision" transform="matrix(1,0,0,1,-341,-81)" stroke="rgb(153,204,255)">
      <rect x="650.675" y="134.144" clip-path="url(#clipPath2)" width="119.621" rx="4" ry="4" height="38.0083" stroke="none"/>
    </g>
    <g text-rendering="geometricPrecision" stroke-miterlimit="1.45" shape-rendering="geometricPrecision" font-family="sans-serif" transform="matrix(1,0,0,1,-341,-81)" stroke-linecap="butt">
      <text x="688.8029" xml:space="preserve" y="157.8621" clip-path="url(#clipPath2)" stroke="none">qav-app</text>
      <rect x="650.675" y="134.144" clip-path="url(#clipPath2)" fill="none" width="119.621" rx="4" ry="4" height="38.0083"/>
    </g>
    <g fill="rgb(153,204,255)" text-rendering="geometricPrecision" shape-rendering="geometricPrecision" transform="matrix(1,0,0,1,-341,-81)" stroke="rgb(153,204,255)">
      <rect x="501.054" y="214.7129" clip-path="url(#clipPath2)" width="119.621" rx="4" ry="4" height="38.0083" stroke="none"/>
    </g>
    <g text-rendering="geometricPrecision" stroke-miterlimit="1.45" shape-rendering="geometricPrecision" font-family="sans-serif" transform="matrix(1,0,0,1,-341,-81)" stroke-linecap="butt">
      <text x="531.8489" xml:space="preserve" y="238.431" clip-path="url(#clipPath2)" stroke="none">qav-runner</text>
      <rect x="501.054" y="214.7129" clip-path="url(#clipPath2)" fill="none" width="119.621" rx="4" ry="4" height="38.0083"/>
    </g>
    <g fill="rgb(153,204,255)" text-rendering="geometricPrecision" shape-rendering="geometricPrecision" transform="matrix(1,0,0,1,-341,-81)" stroke="rgb(153,204,255)">
      <rect x="381.433" y="134.144" clip-path="url(#clipPath2)" width="119.621" rx="4" ry="4" height="38.0083" stroke="none"/>
    </g>
    <g text-rendering="geometricPrecision" stroke-miterlimit="1.45" shape-rendering="geometricPrecision" font-family="sans-serif" transform="matrix(1,0,0,1,-341,-81)" stroke-linecap="butt">
      <text x="394.8812" xml:space="preserve" y="157.8621" clip-path="url(#clipPath2)" stroke="none">qav-gradle-plugin</text>
      <rect x="381.433" y="134.144" clip-path="url(#clipPath2)" fill="none" width="119.621" rx="4" ry="4" height="38.0083"/>
    </g>
    <g fill="rgb(153,204,255)" text-rendering="geometricPrecision" shape-rendering="geometricPrecision" transform="matrix(1,0,0,1,-341,-81)" stroke="rgb(153,204,255)">
      <rect x="516.054" y="134.144" clip-path="url(#clipPath2)" width="119.621" rx="4" ry="4" height="38.0083" stroke="none"/>
    </g>
    <g text-rendering="geometricPrecision" stroke-miterlimit="1.45" shape-rendering="geometricPrecision" font-family="sans-serif" transform="matrix(1,0,0,1,-341,-81)" stroke-linecap="butt">
      <text x="528.1721" xml:space="preserve" y="157.8621" clip-path="url(#clipPath2)" stroke="none">qav-maven-plugin</text>
      <rect x="516.054" y="134.144" clip-path="url(#clipPath2)" fill="none" width="119.621" rx="4" ry="4" height="38.0083"/>
      <path fill="none" d="M710.4855 172.1524 L710.4855 215.5145 L692.2829 233.7171 L628.675 233.7171" clip-path="url(#clipPath2)"/>
      <path d="M620.675 233.7171 L632.675 238.7171 L629.675 233.7171 L632.675 228.7171 Z" clip-path="url(#clipPath2)" stroke="none"/>
      <path fill="none" d="M437.7435 172.1524 L437.7435 209.7435 L453.715 225.715 L493.0078 225.715" clip-path="url(#clipPath2)"/>
      <path d="M501.0078 225.715 L489.0078 220.715 L492.0078 225.715 L489.0078 230.715 Z" clip-path="url(#clipPath2)" stroke="none"/>
      <path fill="none" d="M568.3645 172.1524 L568.3645 206.6714" clip-path="url(#clipPath2)"/>
      <path d="M568.3645 214.6714 L573.3645 202.6714 L568.3645 205.6714 L563.3645 202.6714 Z" clip-path="url(#clipPath2)" stroke="none"/>
    </g>
    <g transform="matrix(1,0,0,1,-341,-81)" fill-opacity="0.5176" fill="rgb(202,236,255)" text-rendering="geometricPrecision" shape-rendering="geometricPrecision" stroke="rgb(202,236,255)" stroke-opacity="0.5176">
      <rect x="800.296" y="96.7676" clip-path="url(#clipPath2)" width="301.2425" rx="4" ry="4" height="170.9537" stroke="none"/>
    </g>
    <g fill="rgb(153,204,255)" text-rendering="geometricPrecision" shape-rendering="geometricPrecision" transform="matrix(1,0,0,1,-341,-81)" stroke="rgb(153,204,255)">
      <rect x="800.296" width="301.2425" height="22.3765" y="96.7676" clip-path="url(#clipPath2)" stroke="none"/>
    </g>
    <g font-size="15px" stroke-linecap="butt" transform="matrix(1,0,0,1,-341,-81)" text-rendering="geometricPrecision" font-family="sans-serif" shape-rendering="geometricPrecision" stroke-miterlimit="1.45">
      <text x="996.9775" xml:space="preserve" y="113.8481" clip-path="url(#clipPath2)" stroke="none">Result Reading</text>
    </g>
    <g stroke-linecap="round" transform="matrix(1,0,0,1,-341,-81)" stroke-dashoffset="2" fill="rgb(102,102,153)" text-rendering="geometricPrecision" shape-rendering="geometricPrecision" stroke-dasharray="0,4" stroke="rgb(102,102,153)" stroke-miterlimit="1.45">
      <rect x="800.296" y="96.7676" clip-path="url(#clipPath2)" fill="none" width="301.2425" rx="4" ry="4" height="170.9537"/>
    </g>
    <g fill="rgb(153,204,255)" text-rendering="geometricPrecision" shape-rendering="geometricPrecision" transform="matrix(1,0,0,1,-341,-81)" stroke="rgb(153,204,255)">
      <rect x="816.2963" y="134.144" clip-path="url(#clipPath2)" width="119.621" rx="4" ry="4" height="38.0083" stroke="none"/>
    </g>
    <g text-rendering="geometricPrecision" stroke-miterlimit="1.45" shape-rendering="geometricPrecision" font-family="sans-serif" transform="matrix(1,0,0,1,-341,-81)" stroke-linecap="butt">
      <text x="831.4144" xml:space="preserve" y="157.8621" clip-path="url(#clipPath2)" stroke="none">qav-sonar-plugin</text>
      <rect x="816.2963" y="134.144" clip-path="url(#clipPath2)" fill="none" width="119.621" rx="4" ry="4" height="38.0083"/>
    </g>
    <g fill="rgb(153,204,255)" text-rendering="geometricPrecision" shape-rendering="geometricPrecision" transform="matrix(1,0,0,1,-341,-81)" stroke="rgb(153,204,255)">
      <rect x="965.9173" y="134.144" clip-path="url(#clipPath2)" width="119.621" rx="4" ry="4" height="38.0083" stroke="none"/>
    </g>
    <g text-rendering="geometricPrecision" stroke-miterlimit="1.45" shape-rendering="geometricPrecision" font-family="sans-serif" transform="matrix(1,0,0,1,-341,-81)" stroke-linecap="butt">
      <text x="997.386" xml:space="preserve" y="157.8621" clip-path="url(#clipPath2)" stroke="none">qav-server</text>
      <rect x="965.9173" y="134.144" clip-path="url(#clipPath2)" fill="none" width="119.621" rx="4" ry="4" height="38.0083"/>
    </g>
    <g fill="rgb(153,204,255)" text-rendering="geometricPrecision" shape-rendering="geometricPrecision" transform="matrix(1,0,0,1,-341,-81)" stroke="rgb(153,204,255)">
      <rect x="965.9173" y="214.7129" clip-path="url(#clipPath2)" width="119.621" rx="4" ry="4" height="38.0083" stroke="none"/>
    </g>
    <g text-rendering="geometricPrecision" stroke-miterlimit="1.45" shape-rendering="geometricPrecision" font-family="sans-serif" transform="matrix(1,0,0,1,-341,-81)" stroke-linecap="butt">
      <text x="1009.386" xml:space="preserve" y="238.431" clip-path="url(#clipPath2)" stroke="none">qav-ui</text>
      <rect x="965.9173" y="214.7129" clip-path="url(#clipPath2)" fill="none" width="119.621" rx="4" ry="4" height="38.0083"/>
      <path fill="none" d="M1085.5383 153.1482 L1104.1482 153.1482 L1111.5385 160.5385 L1111.5385 673.4615 L1089.0348 695.9651 L876.1068 695.9651" clip-path="url(#clipPath2)"/>
      <path d="M868.1068 695.9651 L880.1068 700.9651 L877.1068 695.9651 L880.1068 690.9651 Z" clip-path="url(#clipPath2)" stroke="none"/>
      <path fill="none" d="M1025.7278 172.1524 L1025.7278 206.6714" clip-path="url(#clipPath2)"/>
      <path d="M1025.7278 214.6714 L1030.7278 202.6714 L1025.7278 205.6714 L1020.7278 202.6714 Z" clip-path="url(#clipPath2)" stroke="none"/>
    </g>
    <g transform="matrix(1,0,0,1,-341,-81)" fill-opacity="0.5176" fill="rgb(202,236,255)" text-rendering="geometricPrecision" shape-rendering="geometricPrecision" stroke="rgb(202,236,255)" stroke-opacity="0.5176">
      <rect x="366.433" y="288.6291" clip-path="url(#clipPath2)" width="735.1055" rx="4" ry="4" height="336.7076" stroke="none"/>
    </g>
    <g fill="rgb(153,204,255)" text-rendering="geometricPrecision" shape-rendering="geometricPrecision" transform="matrix(1,0,0,1,-341,-81)" stroke="rgb(153,204,255)">
      <rect x="366.433" width="735.1055" height="22.3765" y="288.6291" clip-path="url(#clipPath2)" stroke="none"/>
    </g>
    <g font-size="15px" stroke-linecap="butt" transform="matrix(1,0,0,1,-341,-81)" text-rendering="geometricPrecision" font-family="sans-serif" shape-rendering="geometricPrecision" stroke-miterlimit="1.45">
      <text x="1025.3368" xml:space="preserve" y="305.7097" clip-path="url(#clipPath2)" stroke="none">Processing</text>
    </g>
    <g stroke-linecap="round" transform="matrix(1,0,0,1,-341,-81)" stroke-dashoffset="2" fill="rgb(102,102,153)" text-rendering="geometricPrecision" shape-rendering="geometricPrecision" stroke-dasharray="0,4" stroke="rgb(102,102,153)" stroke-miterlimit="1.45">
      <rect x="366.433" y="288.6291" clip-path="url(#clipPath2)" fill="none" width="735.1055" rx="4" ry="4" height="336.7076"/>
    </g>
    <g text-rendering="geometricPrecision" stroke-miterlimit="1.45" shape-rendering="geometricPrecision" transform="matrix(1,0,0,1,-341,-81)" stroke-linecap="butt">
      <path fill="none" d="M836.7015 625.3367 L836.7015 668.9358" clip-path="url(#clipPath2)"/>
      <path d="M836.7015 676.9358 L841.7015 664.9358 L836.7015 667.9358 L831.7015 664.9358 Z" clip-path="url(#clipPath2)" stroke="none"/>
    </g>
    <g transform="matrix(1,0,0,1,-341,-81)" fill-opacity="0.5176" fill="rgb(182,216,235)" text-rendering="geometricPrecision" shape-rendering="geometricPrecision" stroke="rgb(182,216,235)" stroke-opacity="0.5176">
      <rect x="381.433" y="445.2836" clip-path="url(#clipPath2)" width="301.2425" rx="4" ry="4" height="158.3932" stroke="none"/>
    </g>
    <g fill="rgb(153,204,255)" text-rendering="geometricPrecision" shape-rendering="geometricPrecision" transform="matrix(1,0,0,1,-341,-81)" stroke="rgb(153,204,255)">
      <rect x="381.433" width="301.2425" height="22.3765" y="445.2836" clip-path="url(#clipPath2)" stroke="none"/>
    </g>
    <g font-size="15px" stroke-linecap="butt" transform="matrix(1,0,0,1,-341,-81)" text-rendering="geometricPrecision" font-family="sans-serif" shape-rendering="geometricPrecision" stroke-miterlimit="1.45">
      <text x="647.3136" xml:space="preserve" y="462.3641" clip-path="url(#clipPath2)" stroke="none">Input</text>
    </g>
    <g stroke-linecap="round" transform="matrix(1,0,0,1,-341,-81)" stroke-dashoffset="2" fill="rgb(102,102,153)" text-rendering="geometricPrecision" shape-rendering="geometricPrecision" stroke-dasharray="0,4" stroke="rgb(102,102,153)" stroke-miterlimit="1.45">
      <rect x="381.433" y="445.2836" clip-path="url(#clipPath2)" fill="none" width="301.2425" rx="4" ry="4" height="158.3932"/>
    </g>
    <g fill="rgb(153,204,255)" text-rendering="geometricPrecision" shape-rendering="geometricPrecision" transform="matrix(1,0,0,1,-341,-81)" stroke="rgb(153,204,255)">
      <rect x="397.4332" y="482.66" clip-path="url(#clipPath2)" width="119.621" rx="4" ry="4" height="38.0083" stroke="none"/>
    </g>
    <g text-rendering="geometricPrecision" stroke-miterlimit="1.45" shape-rendering="geometricPrecision" font-family="sans-serif" transform="matrix(1,0,0,1,-341,-81)" stroke-linecap="butt">
      <text x="419.5562" xml:space="preserve" y="506.3781" clip-path="url(#clipPath2)" stroke="none">qav-input-java</text>
      <rect x="397.4332" y="482.66" clip-path="url(#clipPath2)" fill="none" width="119.621" rx="4" ry="4" height="38.0083"/>
    </g>
    <g fill="rgb(153,204,255)" text-rendering="geometricPrecision" shape-rendering="geometricPrecision" transform="matrix(1,0,0,1,-341,-81)" stroke="rgb(153,204,255)">
      <rect x="547.0542" y="482.66" clip-path="url(#clipPath2)" width="119.621" rx="4" ry="4" height="38.0083" stroke="none"/>
    </g>
    <g text-rendering="geometricPrecision" stroke-miterlimit="1.45" shape-rendering="geometricPrecision" font-family="sans-serif" transform="matrix(1,0,0,1,-341,-81)" stroke-linecap="butt">
      <text x="562.1752" xml:space="preserve" y="506.3781" clip-path="url(#clipPath2)" stroke="none">qav-input-maven</text>
      <rect x="547.0542" y="482.66" clip-path="url(#clipPath2)" fill="none" width="119.621" rx="4" ry="4" height="38.0083"/>
    </g>
    <g fill="rgb(153,204,255)" text-rendering="geometricPrecision" shape-rendering="geometricPrecision" transform="matrix(1,0,0,1,-341,-81)" stroke="rgb(153,204,255)">
      <rect x="397.4332" y="545.6684" clip-path="url(#clipPath2)" width="119.621" rx="4" ry="4" height="38.0083" stroke="none"/>
    </g>
    <g text-rendering="geometricPrecision" stroke-miterlimit="1.45" shape-rendering="geometricPrecision" font-family="sans-serif" transform="matrix(1,0,0,1,-341,-81)" stroke-linecap="butt">
      <text x="404.8872" xml:space="preserve" y="569.3864" clip-path="url(#clipPath2)" stroke="none">qav-input-typescript</text>
      <rect x="397.4332" y="545.6684" clip-path="url(#clipPath2)" fill="none" width="119.621" rx="4" ry="4" height="38.0083"/>
    </g>
    <g fill="rgb(153,204,255)" text-rendering="geometricPrecision" shape-rendering="geometricPrecision" transform="matrix(1,0,0,1,-341,-81)" stroke="rgb(153,204,255)">
      <rect x="547.0542" y="545.6684" clip-path="url(#clipPath2)" width="119.621" rx="4" ry="4" height="38.0083" stroke="none"/>
    </g>
    <g text-rendering="geometricPrecision" stroke-miterlimit="1.45" shape-rendering="geometricPrecision" font-family="sans-serif" transform="matrix(1,0,0,1,-341,-81)" stroke-linecap="butt">
      <text x="563.5053" xml:space="preserve" y="569.3864" clip-path="url(#clipPath2)" stroke="none">qav-input-gradle</text>
      <rect x="547.0542" y="545.6684" clip-path="url(#clipPath2)" fill="none" width="119.621" rx="4" ry="4" height="38.0083"/>
    </g>
    <g transform="matrix(1,0,0,1,-341,-81)" fill-opacity="0.5176" fill="rgb(182,216,235)" text-rendering="geometricPrecision" shape-rendering="geometricPrecision" stroke="rgb(182,216,235)" stroke-opacity="0.5176">
      <rect x="933.9171" y="445.2836" clip-path="url(#clipPath2)" width="151.6214" rx="4" ry="4" height="90.3848" stroke="none"/>
    </g>
    <g fill="rgb(153,204,255)" text-rendering="geometricPrecision" shape-rendering="geometricPrecision" transform="matrix(1,0,0,1,-341,-81)" stroke="rgb(153,204,255)">
      <rect x="933.9171" width="151.6214" height="22.3765" y="445.2836" clip-path="url(#clipPath2)" stroke="none"/>
    </g>
    <g font-size="15px" stroke-linecap="butt" transform="matrix(1,0,0,1,-341,-81)" text-rendering="geometricPrecision" font-family="sans-serif" shape-rendering="geometricPrecision" stroke-miterlimit="1.45">
      <text x="1038.5092" xml:space="preserve" y="462.3641" clip-path="url(#clipPath2)" stroke="none">Output</text>
    </g>
    <g stroke-linecap="round" transform="matrix(1,0,0,1,-341,-81)" stroke-dashoffset="2" fill="rgb(102,102,153)" text-rendering="geometricPrecision" shape-rendering="geometricPrecision" stroke-dasharray="0,4" stroke="rgb(102,102,153)" stroke-miterlimit="1.45">
      <rect x="933.9171" y="445.2836" clip-path="url(#clipPath2)" fill="none" width="151.6214" rx="4" ry="4" height="90.3848"/>
    </g>
    <g fill="rgb(153,204,255)" text-rendering="geometricPrecision" shape-rendering="geometricPrecision" transform="matrix(1,0,0,1,-341,-81)" stroke="rgb(153,204,255)">
      <rect x="949.9173" y="482.66" clip-path="url(#clipPath2)" width="119.621" rx="4" ry="4" height="38.0083" stroke="none"/>
    </g>
    <g text-rendering="geometricPrecision" stroke-miterlimit="1.45" shape-rendering="geometricPrecision" font-family="sans-serif" transform="matrix(1,0,0,1,-341,-81)" stroke-linecap="butt">
      <text x="965.3723" xml:space="preserve" y="506.3781" clip-path="url(#clipPath2)" stroke="none">qav-visualization</text>
      <rect x="949.9173" y="482.66" clip-path="url(#clipPath2)" fill="none" width="119.621" rx="4" ry="4" height="38.0083"/>
    </g>
    <g transform="matrix(1,0,0,1,-341,-81)" fill-opacity="0.5176" fill="rgb(182,216,235)" text-rendering="geometricPrecision" shape-rendering="geometricPrecision" stroke="rgb(182,216,235)" stroke-opacity="0.5176">
      <rect x="702.4855" y="445.2836" clip-path="url(#clipPath2)" width="210.6212" rx="4" ry="4" height="158.3932" stroke="none"/>
    </g>
    <g fill="rgb(153,204,255)" text-rendering="geometricPrecision" shape-rendering="geometricPrecision" transform="matrix(1,0,0,1,-341,-81)" stroke="rgb(153,204,255)">
      <rect x="702.4855" width="210.6212" height="22.3765" y="445.2836" clip-path="url(#clipPath2)" stroke="none"/>
    </g>
    <g font-size="15px" stroke-linecap="butt" transform="matrix(1,0,0,1,-341,-81)" text-rendering="geometricPrecision" font-family="sans-serif" shape-rendering="geometricPrecision" stroke-miterlimit="1.45">
      <text x="791.8758" xml:space="preserve" y="462.3641" clip-path="url(#clipPath2)" stroke="none">Trafo &amp; Validation</text>
    </g>
    <g stroke-linecap="round" transform="matrix(1,0,0,1,-341,-81)" stroke-dashoffset="2" fill="rgb(102,102,153)" text-rendering="geometricPrecision" shape-rendering="geometricPrecision" stroke-dasharray="0,4" stroke="rgb(102,102,153)" stroke-miterlimit="1.45">
      <rect x="702.4855" y="445.2836" clip-path="url(#clipPath2)" fill="none" width="210.6212" rx="4" ry="4" height="158.3932"/>
    </g>
    <g fill="rgb(153,204,255)" text-rendering="geometricPrecision" shape-rendering="geometricPrecision" transform="matrix(1,0,0,1,-341,-81)" stroke="rgb(153,204,255)">
      <rect x="748.4857" y="482.66" clip-path="url(#clipPath2)" width="119.621" rx="4" ry="4" height="38.0083" stroke="none"/>
    </g>
    <g text-rendering="geometricPrecision" stroke-miterlimit="1.45" shape-rendering="geometricPrecision" font-family="sans-serif" transform="matrix(1,0,0,1,-341,-81)" stroke-linecap="butt">
      <text x="765.2767" xml:space="preserve" y="506.3781" clip-path="url(#clipPath2)" stroke="none">qav-architecture</text>
      <rect x="748.4857" y="482.66" clip-path="url(#clipPath2)" fill="none" width="119.621" rx="4" ry="4" height="38.0083"/>
    </g>
    <g fill="rgb(153,204,255)" text-rendering="geometricPrecision" shape-rendering="geometricPrecision" transform="matrix(1,0,0,1,-341,-81)" stroke="rgb(153,204,255)">
      <rect x="748.4857" y="545.6684" clip-path="url(#clipPath2)" width="119.621" rx="4" ry="4" height="38.0083" stroke="none"/>
    </g>
    <g text-rendering="geometricPrecision" stroke-miterlimit="1.45" shape-rendering="geometricPrecision" font-family="sans-serif" transform="matrix(1,0,0,1,-341,-81)" stroke-linecap="butt">
      <text x="755.6088" xml:space="preserve" y="569.3864" clip-path="url(#clipPath2)" stroke="none">qav-architecture-dsl</text>
      <rect x="748.4857" y="545.6684" clip-path="url(#clipPath2)" fill="none" width="119.621" rx="4" ry="4" height="38.0083"/>
      <path fill="none" d="M808.2963 520.6683 L808.2963 537.6195" clip-path="url(#clipPath2)"/>
      <path d="M808.2963 545.6195 L813.2963 533.6195 L808.2963 536.6195 L803.2963 533.6195 Z" clip-path="url(#clipPath2)" stroke="none"/>
      <path fill="none" d="M1009.7278 520.6683 L1009.7278 552.2722 L997.3275 564.6725 L876.1068 564.6725" clip-path="url(#clipPath2)"/>
      <path d="M868.1068 564.6725 L880.1068 569.6725 L877.1068 564.6725 L880.1068 559.6725 Z" clip-path="url(#clipPath2)" stroke="none"/>
    </g>
    <g transform="matrix(1,0,0,1,-341,-81)" fill-opacity="0.5176" fill="rgb(182,216,235)" text-rendering="geometricPrecision" shape-rendering="geometricPrecision" stroke="rgb(182,216,235)" stroke-opacity="0.5176">
      <rect x="381.433" y="326.0056" clip-path="url(#clipPath2)" width="704.1055" rx="4" ry="4" height="98.3702" stroke="none"/>
    </g>
    <g fill="rgb(153,204,255)" text-rendering="geometricPrecision" shape-rendering="geometricPrecision" transform="matrix(1,0,0,1,-341,-81)" stroke="rgb(153,204,255)">
      <rect x="381.433" width="704.1055" height="22.3765" y="326.0056" clip-path="url(#clipPath2)" stroke="none"/>
    </g>
    <g font-size="15px" stroke-linecap="butt" transform="matrix(1,0,0,1,-341,-81)" text-rendering="geometricPrecision" font-family="sans-serif" shape-rendering="geometricPrecision" stroke-miterlimit="1.45">
      <text x="881.7929" xml:space="preserve" y="343.0861" clip-path="url(#clipPath2)" stroke="none">Analysis: DSL &amp; Orchestration</text>
    </g>
    <g stroke-linecap="round" transform="matrix(1,0,0,1,-341,-81)" stroke-dashoffset="2" fill="rgb(102,102,153)" text-rendering="geometricPrecision" shape-rendering="geometricPrecision" stroke-dasharray="0,4" stroke="rgb(102,102,153)" stroke-miterlimit="1.45">
      <rect x="381.433" y="326.0056" clip-path="url(#clipPath2)" fill="none" width="704.1055" rx="4" ry="4" height="98.3702"/>
    </g>
    <g fill="rgb(153,204,255)" text-rendering="geometricPrecision" shape-rendering="geometricPrecision" transform="matrix(1,0,0,1,-341,-81)" stroke="rgb(153,204,255)">
      <rect x="600.6747" y="371.3674" clip-path="url(#clipPath2)" width="119.621" rx="4" ry="4" height="38.0083" stroke="none"/>
    </g>
    <g text-rendering="geometricPrecision" stroke-miterlimit="1.45" shape-rendering="geometricPrecision" font-family="sans-serif" transform="matrix(1,0,0,1,-341,-81)" stroke-linecap="butt">
      <text x="617.4686" xml:space="preserve" y="395.0854" clip-path="url(#clipPath2)" stroke="none">qav-analysis-dsl</text>
      <rect x="600.6747" y="371.3674" clip-path="url(#clipPath2)" fill="none" width="119.621" rx="4" ry="4" height="38.0083"/>
    </g>
    <g fill="rgb(153,204,255)" text-rendering="geometricPrecision" shape-rendering="geometricPrecision" transform="matrix(1,0,0,1,-341,-81)" stroke="rgb(153,204,255)">
      <rect x="401.0532" y="371.3674" clip-path="url(#clipPath2)" width="119.621" rx="4" ry="4" height="38.0083" stroke="none"/>
    </g>
    <g text-rendering="geometricPrecision" stroke-miterlimit="1.45" shape-rendering="geometricPrecision" font-family="sans-serif" transform="matrix(1,0,0,1,-341,-81)" stroke-linecap="butt">
      <text x="406.5033" xml:space="preserve" y="395.0854" clip-path="url(#clipPath2)" stroke="none">qav-analysis-plugins</text>
      <rect x="401.0532" y="371.3674" clip-path="url(#clipPath2)" fill="none" width="119.621" rx="4" ry="4" height="38.0083"/>
      <path fill="none" d="M610.6749 252.7213 L610.6749 363.3384" clip-path="url(#clipPath2)"/>
      <path d="M610.6749 371.3384 L615.6749 359.3384 L610.6749 362.3384 L605.6749 359.3384 Z" clip-path="url(#clipPath2)" stroke="none"/>
      <path fill="none" stroke-dasharray="6,2" d="M510.8641 252.7213 L510.8641 363.3384" clip-path="url(#clipPath2)"/>
      <path stroke-dasharray="6,2" d="M510.8641 371.3384 L515.8641 359.3384 L510.8641 362.3384 L505.8641 359.3384 Z" clip-path="url(#clipPath2)" stroke="none"/>
      <path fill="none" d="M520.6742 387.7042 L556.7042 387.7042 L567.6945 398.6945 L567.6945 413.6945 L578.3757 424.3758 L759.3757 424.3758 L768.891 433.891 L768.891 474.6124" clip-path="url(#clipPath2)"/>
      <path d="M768.891 482.6124 L773.891 470.6124 L768.891 473.6124 L763.891 470.6124 Z" clip-path="url(#clipPath2)" stroke="none"/>
      <path fill="none" d="M520.6742 382.3695 L572.3695 382.3695 L583.0146 393.0146 L583.0146 412.0146 L590.3757 419.3758 L995.3757 419.3758 L1009.7278 433.7278 L1009.7278 474.6122" clip-path="url(#clipPath2)"/>
      <path d="M1009.7278 482.6122 L1014.7278 470.6122 L1009.7278 473.6122 L1004.7278 470.6122 Z" clip-path="url(#clipPath2)" stroke="none"/>
      <path fill="none" d="M459.0537 409.3758 L459.0537 474.6242" clip-path="url(#clipPath2)"/>
      <path d="M459.0537 482.6242 L464.0537 470.6242 L459.0537 473.6242 L454.0537 470.6242 Z" clip-path="url(#clipPath2)" stroke="none"/>
      <path fill="none" d="M520.6742 393.0389 L543.0389 393.0389 L552.3743 402.3744 L552.3743 474.6208" clip-path="url(#clipPath2)"/>
      <path d="M552.3743 482.6208 L557.3743 470.6208 L552.3743 473.6208 L547.3743 470.6208 Z" clip-path="url(#clipPath2)" stroke="none"/>
      <path fill="none" d="M520.6742 377.0348 L592.6356 377.0348" clip-path="url(#clipPath2)"/>
      <path d="M600.6356 377.0348 L588.6356 372.0348 L591.6356 377.0348 L588.6356 382.0348 Z" clip-path="url(#clipPath2)" stroke="none"/>
      <path fill="none" d="M401.0113 398.3737 L379.6263 398.3737 L371.433 406.567 L371.433 613.6767 L771.3233 613.6767 L779.891 605.109 L779.891 591.6767" clip-path="url(#clipPath2)"/>
      <path d="M779.891 583.6767 L774.891 595.6767 L779.891 592.6767 L784.891 595.6767 Z" clip-path="url(#clipPath2)" stroke="none"/>
      <path fill="none" d="M520.6742 403.7084 L530.6742 403.7084 L530.6742 553.3258 L527.3295 556.6705 L525.0542 556.6705" clip-path="url(#clipPath2)"/>
      <path d="M517.0542 556.6705 L529.0542 561.6705 L526.0542 556.6705 L529.0542 551.6705 Z" clip-path="url(#clipPath2)" stroke="none"/>
      <path fill="none" d="M520.6742 398.3737 L532.3737 398.3737 L537.0542 403.0542 L537.0542 572.6746 L539.0151 572.6746" clip-path="url(#clipPath2)"/>
      <path d="M547.0151 572.6746 L535.0151 567.6746 L538.0151 572.6746 L535.0151 577.6746 Z" clip-path="url(#clipPath2)" stroke="none"/>
    </g>
    <g transform="matrix(1,0,0,1,-341,-81)" fill-opacity="0.5176" fill="rgb(202,236,255)" text-rendering="geometricPrecision" shape-rendering="geometricPrecision" stroke="rgb(202,236,255)" stroke-opacity="0.5176">
      <rect x="613.8647" y="744.9693" clip-path="url(#clipPath2)" width="299.242" rx="4" ry="4" height="148.3932" stroke="none"/>
    </g>
    <g fill="rgb(153,204,255)" text-rendering="geometricPrecision" shape-rendering="geometricPrecision" transform="matrix(1,0,0,1,-341,-81)" stroke="rgb(153,204,255)">
      <rect x="613.8647" width="299.242" height="22.3765" y="744.9693" clip-path="url(#clipPath2)" stroke="none"/>
    </g>
    <g font-size="15px" stroke-linecap="butt" transform="matrix(1,0,0,1,-341,-81)" text-rendering="geometricPrecision" font-family="sans-serif" shape-rendering="geometricPrecision" stroke-miterlimit="1.45">
      <text x="862.7669" xml:space="preserve" y="762.0499" clip-path="url(#clipPath2)" stroke="none">Utilities</text>
    </g>
    <g stroke-linecap="round" transform="matrix(1,0,0,1,-341,-81)" stroke-dashoffset="2" fill="rgb(102,102,153)" text-rendering="geometricPrecision" shape-rendering="geometricPrecision" stroke-dasharray="0,4" stroke="rgb(102,102,153)" stroke-miterlimit="1.45">
      <rect x="613.8647" y="744.9693" clip-path="url(#clipPath2)" fill="none" width="299.242" rx="4" ry="4" height="148.3932"/>
    </g>
    <g fill="rgb(153,204,255)" text-rendering="geometricPrecision" shape-rendering="geometricPrecision" transform="matrix(1,0,0,1,-341,-81)" stroke="rgb(153,204,255)">
      <rect x="628.8647" y="782.3458" clip-path="url(#clipPath2)" width="119.621" rx="4" ry="4" height="38.0083" stroke="none"/>
    </g>
    <g text-rendering="geometricPrecision" stroke-miterlimit="1.45" shape-rendering="geometricPrecision" font-family="sans-serif" transform="matrix(1,0,0,1,-341,-81)" stroke-linecap="butt">
      <text x="639.6469" xml:space="preserve" y="806.0638" clip-path="url(#clipPath2)" stroke="none">qav-doc-generator</text>
      <rect x="628.8647" y="782.3458" clip-path="url(#clipPath2)" fill="none" width="119.621" rx="4" ry="4" height="38.0083"/>
    </g>
    <g fill="rgb(153,204,255)" text-rendering="geometricPrecision" shape-rendering="geometricPrecision" transform="matrix(1,0,0,1,-341,-81)" stroke="rgb(153,204,255)">
      <rect x="778.4857" y="840.3541" clip-path="url(#clipPath2)" width="119.621" rx="4" ry="4" height="38.0083" stroke="none"/>
    </g>
    <g text-rendering="geometricPrecision" stroke-miterlimit="1.45" shape-rendering="geometricPrecision" font-family="sans-serif" transform="matrix(1,0,0,1,-341,-81)" stroke-linecap="butt">
      <text x="807.2855" xml:space="preserve" y="864.0722" clip-path="url(#clipPath2)" stroke="none">qav-test-util</text>
      <rect x="778.4857" y="840.3541" clip-path="url(#clipPath2)" fill="none" width="119.621" stroke-dasharray="6,2" rx="4" ry="4" height="38.0083"/>
    </g>
    <g fill="rgb(153,204,255)" text-rendering="geometricPrecision" shape-rendering="geometricPrecision" transform="matrix(1,0,0,1,-341,-81)" stroke="rgb(153,204,255)">
      <rect x="778.4857" y="782.3458" clip-path="url(#clipPath2)" width="119.621" rx="4" ry="4" height="38.0083" stroke="none"/>
    </g>
    <g text-rendering="geometricPrecision" stroke-miterlimit="1.45" shape-rendering="geometricPrecision" font-family="sans-serif" transform="matrix(1,0,0,1,-341,-81)" stroke-linecap="butt">
      <text x="818.9545" xml:space="preserve" y="806.0638" clip-path="url(#clipPath2)" stroke="none">qav-util</text>
      <rect x="778.4857" y="782.3458" clip-path="url(#clipPath2)" fill="none" width="119.621" rx="4" ry="4" height="38.0083"/>
      <path fill="none" d="M401.0055 382.3695 L376.6305 382.3695 L366.433 392.567 L366.433 778.433 L389.35 801.35 L620.8355 801.35" clip-path="url(#clipPath2)"/>
      <path d="M628.8355 801.35 L616.8355 796.35 L619.8355 801.35 L616.8355 806.35 Z" clip-path="url(#clipPath2)" stroke="none"/>
      <path fill="none" d="M748.4857 801.35 L770.4564 801.35" clip-path="url(#clipPath2)"/>
      <path d="M778.4564 801.35 L766.4564 796.35 L769.4564 801.35 L766.4564 806.35 Z" clip-path="url(#clipPath2)" stroke="none"/>
      <path fill="none" d="M844.2015 714.9693 L844.2015 774.3129" clip-path="url(#clipPath2)"/>
      <path d="M844.2015 782.3129 L849.2015 770.3129 L844.2015 773.3129 L839.2015 770.3129 Z" clip-path="url(#clipPath2)" stroke="none"/>
      <path fill="none" d="M501.0211 241.7192 L366.2808 241.7192 L356.433 251.567 L356.433 745.433 L369.6576 758.6575 L795.6575 758.6575 L802.391 765.391 L802.391 774.3127" clip-path="url(#clipPath2)"/>
      <path d="M802.391 782.3127 L807.391 770.3127 L802.391 773.3127 L797.391 770.3127 Z" clip-path="url(#clipPath2)" stroke="none"/>
      <path fill="none" d="M923.5119 625.3367 L923.5119 782.4881 L916.8383 789.1617 L906.1068 789.1617" clip-path="url(#clipPath2)"/>
      <path d="M898.1068 789.1617 L910.1068 794.1617 L907.1068 789.1617 L910.1068 784.1617 Z" clip-path="url(#clipPath2)" stroke="none"/>
      <path fill="none" stroke-dasharray="6,2" d="M838.2963 820.3541 L838.2963 832.3151" clip-path="url(#clipPath2)"/>
      <path stroke-dasharray="6,2" d="M838.2963 840.3151 L843.2963 828.3151 L838.2963 831.3151 L833.2963 828.3151 Z" clip-path="url(#clipPath2)" stroke="none"/>
    </g>
    <g transform="matrix(1,0,0,1,-341,-81)" fill-opacity="0.5176" fill="rgb(202,236,255)" text-rendering="geometricPrecision" shape-rendering="geometricPrecision" stroke="rgb(202,236,255)" stroke-opacity="0.5176">
      <rect x="951.9175" y="802.9777" clip-path="url(#clipPath2)" width="149.621" rx="4" ry="4" height="90.3848" stroke="none"/>
    </g>
    <g fill="rgb(153,204,255)" text-rendering="geometricPrecision" shape-rendering="geometricPrecision" transform="matrix(1,0,0,1,-341,-81)" stroke="rgb(153,204,255)">
      <rect x="951.9175" width="149.621" height="22.3765" y="802.9777" clip-path="url(#clipPath2)" stroke="none"/>
    </g>
    <g font-size="15px" stroke-linecap="butt" transform="matrix(1,0,0,1,-341,-81)" text-rendering="geometricPrecision" font-family="sans-serif" shape-rendering="geometricPrecision" stroke-miterlimit="1.45">
      <text x="998.6474" xml:space="preserve" y="820.0582" clip-path="url(#clipPath2)" stroke="none">Documentation</text>
    </g>
    <g stroke-linecap="round" transform="matrix(1,0,0,1,-341,-81)" stroke-dashoffset="2" fill="rgb(102,102,153)" text-rendering="geometricPrecision" shape-rendering="geometricPrecision" stroke-dasharray="0,4" stroke="rgb(102,102,153)" stroke-miterlimit="1.45">
      <rect x="951.9175" y="802.9777" clip-path="url(#clipPath2)" fill="none" width="149.621" rx="4" ry="4" height="90.3848"/>
    </g>
    <g fill="rgb(153,204,255)" text-rendering="geometricPrecision" shape-rendering="geometricPrecision" transform="matrix(1,0,0,1,-341,-81)" stroke="rgb(153,204,255)">
      <rect x="966.9175" y="840.3541" clip-path="url(#clipPath2)" width="119.621" rx="4" ry="4" height="38.0083" stroke="none"/>
    </g>
    <g text-rendering="geometricPrecision" stroke-miterlimit="1.45" shape-rendering="geometricPrecision" font-family="sans-serif" transform="matrix(1,0,0,1,-341,-81)" stroke-linecap="butt">
      <text x="1005.3823" xml:space="preserve" y="864.0722" clip-path="url(#clipPath2)" stroke="none">qav-doc</text>
      <rect x="966.9175" y="840.3541" clip-path="url(#clipPath2)" fill="none" width="119.621" rx="4" ry="4" height="38.0083"/>
    </g>
  </g>
</svg>
